<svg width="160" height="32" viewBox="0 0 160 32" fill="none" xmlns="http://www.w3.org/2000/svg">
<path fill-rule="evenodd" clip-rule="evenodd" d="M114.315 9.33542C114.732 9.33293 115.971 9.22133 116.496 10.9927C116.85 12.1858 117.413 14.1403 118.186 16.8561H118.5C119.329 13.9929 119.898 12.0385 120.208 10.9927C120.739 9.20288 122.064 9.33546 122.595 9.33546L126.686 9.33546V22.0627H122.516V14.5623H122.236L119.912 22.0627H116.774L114.45 14.5568H114.17V22.0627H110V9.33546L114.315 9.33542ZM132.674 9.33546V16.8414H133.007L135.835 10.6693C136.384 9.44106 137.553 9.33546 137.553 9.33546H141.589V22.0627H137.332V14.5568H136.999L134.227 20.7289C133.678 21.9516 132.452 22.0627 132.452 22.0627H128.417V9.33546H132.674ZM156.303 15.3835C155.71 17.0663 153.845 18.2715 151.78 18.2715H147.316V22.0627H143.267V15.3835H156.303Z" fill="#0F754E"/>
<path fill-rule="evenodd" clip-rule="evenodd" d="M151.975 9.33545H143.055C143.267 12.169 145.708 14.5947 148.234 14.5947H156.585C157.067 12.2397 155.408 9.33545 151.975 9.33545Z" fill="url(#paint0_linear_1143_63)"/>
<path d="M85.97 8.35547H75.9988V24.6414H85.97V8.35547Z" fill="#FF5F00"/>
<path d="M77.0259 16.5001C77.0247 14.9319 77.3801 13.384 78.0655 11.9734C78.7508 10.5629 79.748 9.32676 80.9816 8.35853C79.4537 7.15779 77.6188 6.41112 75.6867 6.20386C73.7545 5.9966 71.8031 6.33711 70.0553 7.18647C68.3075 8.03584 66.8339 9.35979 65.803 11.007C64.7721 12.6542 64.2253 14.5583 64.2253 16.5015C64.2253 18.4448 64.7721 20.3488 65.803 21.996C66.8339 23.6432 68.3075 24.9672 70.0553 25.8166C71.8031 26.6659 73.7545 27.0064 75.6867 26.7992C77.6188 26.5919 79.4537 25.8452 80.9816 24.6445C79.7476 23.676 78.7502 22.4394 78.0648 21.0283C77.3795 19.6172 77.0242 18.0688 77.0259 16.5001Z" fill="#EB001B"/>
<path d="M96.7497 22.9184V22.5847H96.8935V22.5156H96.5511V22.5847H96.6864V22.9184H96.7497ZM97.4142 22.9184V22.5156H97.3106L97.1898 22.8033L97.069 22.5156H96.9654V22.9184H97.0402V22.6134L97.1524 22.8752H97.2301L97.3423 22.6134V22.9184H97.4142Z" fill="#F79E1B"/>
<path d="M97.7393 16.5C97.7393 18.4434 97.1925 20.3475 96.1613 21.9948C95.1302 23.6421 93.6564 24.966 91.9084 25.8153C90.1604 26.6645 88.2087 27.0048 86.2765 26.7972C84.3442 26.5897 82.5093 25.8427 80.9816 24.6415C82.2147 23.6724 83.2116 22.436 83.8971 21.0254C84.5826 19.6148 84.9388 18.0669 84.9388 16.4986C84.9388 14.9302 84.5826 13.3824 83.8971 11.9718C83.2116 10.5612 82.2147 9.32467 80.9816 8.35558C82.5093 7.15446 84.3442 6.40743 86.2765 6.19987C88.2087 5.99231 90.1604 6.3326 91.9084 7.18185C93.6564 8.03109 95.1302 9.35502 96.1613 11.0023C97.1925 12.6496 97.7393 14.5537 97.7393 16.4971V16.5Z" fill="#F79E1B"/>
<path fill-rule="evenodd" clip-rule="evenodd" d="M15.6338 22.5577H11.8374L8.99054 11.6969C8.85542 11.1973 8.56852 10.7556 8.14649 10.5475C7.09328 10.0243 5.9327 9.60801 4.66663 9.39803V8.97989H10.7823C11.6264 8.97989 12.2594 9.60801 12.3649 10.3375L13.842 18.1718L17.6365 8.97989H21.3274L15.6338 22.5577ZM23.4375 22.5577H19.8521L22.8045 8.97989H26.3898L23.4375 22.5577ZM31.0285 12.7414C31.134 12.0101 31.767 11.5919 32.5055 11.5919C33.6661 11.4869 34.9303 11.6969 35.9854 12.2182L36.6184 9.29486C35.5634 8.87672 34.4028 8.66675 33.3496 8.66675C29.8697 8.66675 27.3376 10.5475 27.3376 13.1577C27.3376 15.1434 29.1312 16.186 30.3973 16.8142C31.767 17.4405 32.2945 17.8586 32.189 18.4849C32.189 19.4244 31.134 19.8425 30.0807 19.8425C28.8147 19.8425 27.5486 19.5294 26.3899 19.0062L25.7568 21.9314C27.0229 22.4527 28.3926 22.6627 29.6587 22.6627C33.5606 22.7659 35.9854 20.887 35.9854 18.0668C35.9854 14.5153 31.0285 14.3071 31.0285 12.7414ZM48.5333 22.5577L45.6865 8.97989H42.6286C41.9956 8.97989 41.3625 9.39803 41.1515 10.0243L35.8799 22.5577H39.5708L40.3075 20.5738H44.8424L45.2644 22.5577H48.5333ZM43.1562 12.6364L44.2094 17.7536H41.2571L43.1562 12.6364Z" fill="#172B85"/>
<defs>
<linearGradient id="paint0_linear_1143_63" x1="156.667" y1="12.6437" x2="143.055" y2="12.6437" gradientUnits="userSpaceOnUse">
<stop stop-color="#1F5CD7"/>
<stop offset="1" stop-color="#02AEFF"/>
</linearGradient>
</defs>
</svg>
